<?xml version="1.0" encoding="iso-8859-1"?>
<!-- Generator: Adobe Illustrator 19.0.0, SVG Export Plug-In . SVG Version: 6.00 Build 0)  -->
<svg version="1.1" id="Capa_1" xmlns="http://www.w3.org/2000/svg" xmlns:xlink="http://www.w3.org/1999/xlink" x="0px" y="0px"
	 viewBox="0 0 512 512" style="enable-background:new 0 0 512 512;" xml:space="preserve">
<circle style="fill:#C9F3FF;" cx="379.004" cy="132.998" r="123.008"/>
<path style="fill:#FFB954;" d="M204.88,213.915l126.052-32.849l-32.85,126.052L110.486,494.712c-9.712,9.712-25.459,9.712-35.171,0
	l-58.031-58.031c-9.712-9.712-9.712-25.459,0-35.171L204.88,213.915z"/>
<path style="fill:#FF5D5D;" d="M53.476,365.318L17.285,401.51c-9.712,9.712-9.712,25.459,0,35.171l58.031,58.031
	c9.712,9.712,25.459,9.712,35.171,0l36.191-36.191L53.476,365.318z"/>
<polygon style="fill:#898998;" points="204.88,213.915 330.932,181.065 298.081,307.117 "/>
<polygon style="fill:#686C83;" points="330.932,181.065 264.971,198.255 313.742,247.026 "/>
<path d="M256.004,143.002c5.522,0,10-4.477,10-10v-0.055c0-5.523-4.478-9.973-10-9.973s-10,4.505-10,10.028
	C246.004,138.525,250.481,143.002,256.004,143.002z"/>
<path d="M379.002,0.004c-57.603,0-108.386,36.74-126.368,91.423c-1.725,5.247,1.13,10.898,6.376,12.624
	c5.243,1.725,10.897-1.128,12.624-6.376c15.276-46.457,58.425-77.671,107.368-77.671C441.31,20.004,492,70.694,492,133.002
	S441.31,246,379.002,246c-5.522,0-10,4.477-10,10s4.478,10,10,10C452.338,266,512,206.337,512,133.002S452.338,0.004,379.002,0.004z
	"/>
<path d="M379.002,210.334h17.835c5.522,0,10-4.477,10-10s-4.478-10-10-10h-17.835c-31.331,0-56.82-25.49-56.82-56.821v-1.023
	c0-31.332,25.49-56.821,56.82-56.821c31.332,0,56.821,25.49,56.821,56.821v16.222c0,5.085-4.138,9.222-9.223,9.222
	c-5.085,0-9.222-4.137-9.222-9.222v-18.323c0-22.822-18.566-41.388-41.388-41.388c-23.938,0-43.413,19.475-43.413,43.413
	s19.476,43.413,43.413,43.413h12.592c5.522,0,10-4.477,10-10c0-5.523-4.478-10-10-10H375.99c-12.91,0-23.414-10.503-23.414-23.414
	S363.08,109,375.99,109c11.794,0,21.389,9.595,21.389,21.389v18.323c0,16.113,13.108,29.222,29.222,29.222
	c16.114,0,29.223-13.109,29.223-29.222V132.49c0-42.359-34.461-76.821-76.821-76.821c-42.358,0-76.82,34.461-76.82,76.821v1.023
	c0,15.29,4.508,29.539,12.239,41.52l-112.062,29.205c-1.722,0.449-3.292,1.348-4.55,2.605L10.214,394.439
	C3.628,401.025,0,409.782,0,419.095s3.628,18.071,10.214,24.657l58.03,58.031c6.587,6.586,15.344,10.213,24.657,10.213
	c9.314,0,18.071-3.627,24.657-10.213l187.595-187.595c1.258-1.258,2.157-2.828,2.605-4.549l29.163-111.903
	C349.018,205.689,363.474,210.334,379.002,210.334z M292.807,287.7l-68.511-68.511l37.653-9.813l40.671,40.67L292.807,287.7z
	 M146.679,444.378l-16.926-16.925l90.183-90.183c3.905-3.905,3.905-10.237,0-14.143c-3.906-3.905-10.236-3.905-14.143,0
	l-90.184,90.183l-47.992-47.992l137.261-137.262l16.925,16.925L108.539,358.247c-3.905,3.905-3.905,10.237,0,14.143
	c1.953,1.952,4.512,2.929,7.071,2.929c2.559,0,5.118-0.977,7.071-2.929l113.265-113.265l47.992,47.992L146.679,444.378z
	 M284.387,203.529l32.569-8.488l-8.488,32.568L284.387,203.529z M103.415,487.641c-2.809,2.809-6.542,4.355-10.515,4.355
	c-3.972,0-7.706-1.547-10.515-4.355l-58.03-58.031c-2.81-2.809-4.356-6.542-4.356-10.515c0-3.972,1.547-7.706,4.356-10.515
	l29.12-29.12l79.06,79.06L103.415,487.641z"/>
<path d="M244.997,298.072c-1.86-1.86-4.44-2.93-7.07-2.93c-2.64,0-5.21,1.07-7.07,2.93c-1.859,1.86-2.93,4.43-2.93,7.07
	c0,2.63,1.061,5.21,2.93,7.07c1.86,1.86,4.44,2.93,7.07,2.93c2.63,0,5.21-1.07,7.07-2.93c1.859-1.86,2.93-4.44,2.93-7.07
	C247.927,302.502,246.856,299.922,244.997,298.072z"/>
<path d="M121.152,138.891h16.384c5.522,0,10-4.477,10-10c0-5.523-4.478-10-10-10h-16.384c-5.522,0-10,4.477-10,10
	S115.63,138.891,121.152,138.891z"/>
<path d="M97.533,112.947c5.522,0,10-4.477,10-10V88.496c0-5.523-4.478-10-10-10c-5.522,0-10,4.477-10,10v14.452
	C87.534,108.47,92.012,112.947,97.533,112.947z"/>
<path d="M56.757,138.891h15.254c5.522,0,10-4.477,10-10c0-5.523-4.478-10-10-10H56.757c-5.522,0-10,4.477-10,10
	S51.234,138.891,56.757,138.891z"/>
<path d="M97.533,177.508c5.522,0,10-4.477,10-10V155.87c0-5.523-4.478-10-10-10c-5.522,0-10,4.477-10,10v11.639
	C87.534,173.031,92.012,177.508,97.533,177.508z"/>
<path d="M418.635,368.282h-16.385c-5.522,0-10,4.477-10,10s4.478,10,10,10h16.385c5.522,0,10-4.477,10-10
	S424.157,368.282,418.635,368.282z"/>
<path d="M378.632,327.887c-5.522,0-10,4.477-10,10v14.452c0,5.523,4.478,10,10,10s10-4.477,10-10v-14.452
	C388.632,332.364,384.154,327.887,378.632,327.887z"/>
<path d="M353.108,368.282h-15.254c-5.522,0-10,4.477-10,10s4.478,10,10,10h15.254c5.522,0,10-4.477,10-10
	S358.631,368.282,353.108,368.282z"/>
<path d="M378.632,395.261c-5.522,0-10,4.477-10,10v11.638c0,5.523,4.478,10,10,10s10-4.477,10-10v-11.638
	C388.632,399.738,384.154,395.261,378.632,395.261z"/>
<g>
</g>
<g>
</g>
<g>
</g>
<g>
</g>
<g>
</g>
<g>
</g>
<g>
</g>
<g>
</g>
<g>
</g>
<g>
</g>
<g>
</g>
<g>
</g>
<g>
</g>
<g>
</g>
<g>
</g>
</svg>
